<?xml version="1.0" encoding="UTF-8"?>
<svg version="1.1" xmlns="http://www.w3.org/2000/svg" width="250" height="250">
<path d="M0 0 C82.5 0 165 0 250 0 C250 82.5 250 165 250 250 C167.5 250 85 250 0 250 C0 167.5 0 85 0 0 Z " fill="#9B8FC9" transform="translate(0,0)"/>
<path d="M0 0 C12.53409027 10.24776566 23.76953971 24.96772493 25.64331055 41.5402832 C25.80065734 44.63324995 25.84487207 47.70095761 25.82617188 50.79785156 C25.82045166 51.89895264 25.81473145 53.00005371 25.80883789 54.13452148 C25.5056159 68.08171201 21.65955643 80.32137935 13.32617188 91.73535156 C9.8192878 94.07327428 8.10266952 93.83446433 4.03320312 93.28222656 C0.9878685 92.66700745 -1.90016411 91.80040363 -4.86132812 90.86035156 C-29.12198153 83.2371646 -56.07667154 82.54920111 -79.70507812 93.03222656 C-83.04198943 94.2239806 -85.37123909 93.83621458 -88.67382812 92.73535156 C-97.36794681 86.58585298 -101.47727213 73.15324283 -103.36132812 63.04785156 C-105.07733848 45.13699346 -102.16067608 27.58928829 -90.66992188 13.23144531 C-67.66261523 -12.97687791 -29.62571102 -22.38348645 0 0 Z " fill="#FEFEFE" transform="translate(163.673828125,73.2646484375)"/>
<path d="M0 0 C0.87914062 0.00451172 1.75828125 0.00902344 2.6640625 0.01367188 C4.81773803 0.02537663 6.97137817 0.04330931 9.125 0.0625 C9.62 1.0525 9.62 1.0525 10.125 2.0625 C9.27905273 2.092229 9.27905273 2.092229 8.41601562 2.12255859 C5.81860426 2.21881811 3.22188897 2.32808052 0.625 2.4375 C-0.7053125 2.48390625 -0.7053125 2.48390625 -2.0625 2.53125 C-7.62191193 2.77651817 -12.52583551 3.52369926 -17.875 5.0625 C-18.87144531 5.33449219 -19.86789063 5.60648437 -20.89453125 5.88671875 C-30.69550819 8.91611162 -38.84120221 13.5749088 -45.875 21.0625 C-46.535 21.0625 -47.195 21.0625 -47.875 21.0625 C-47.875 20.0725 -47.875 19.0825 -47.875 18.0625 C-47.215 18.0625 -46.555 18.0625 -45.875 18.0625 C-45.875 17.0725 -45.875 16.0825 -45.875 15.0625 C-40.125 12.0625 -40.125 12.0625 -37.875 12.0625 C-37.875 11.4025 -37.875 10.7425 -37.875 10.0625 C-24.94425785 3.88692144 -14.39502566 -0.14091516 0 0 Z " fill="#757DC9" transform="translate(125.875,58.9375)"/>
<path d="M0 0 C3.93936444 0.55680063 6.40019641 1.69498575 9.625 4 C12.17796131 5.81234113 14.00688125 7.00229375 17 8 C17 8.66 17 9.32 17 10 C17.66 10 18.32 10 19 10 C19 10.66 19 11.32 19 12 C19.598125 12.268125 20.19625 12.53625 20.8125 12.8125 C25.20844241 15.19886874 27.3218071 18.84418344 30 23 C29.67 23.66 29.34 24.32 29 25 C28.24976563 24.14277344 27.49953125 23.28554687 26.7265625 22.40234375 C18.74439993 13.42847783 10.58829468 6.75450798 0 1 C0 0.67 0 0.34 0 0 Z " fill="#7D83C8" transform="translate(150,65)"/>
<path d="M0 0 C4 4 4 4 5.3125 5.6875 C8.18118813 7.91870188 10.38942504 7.94268929 14 8 C16.68349891 7.12857547 19.20115918 6.08487274 21.765625 4.91015625 C24 4 24 4 27 4 C27 4.66 27 5.32 27 6 C20.52437771 8.66643271 15.04727184 10.85053281 8 10 C4.32311183 8.36582748 2.05840515 6.46678762 0 3 C0 2.01 0 1.02 0 0 Z " fill="#BBA6C0" transform="translate(68,158)"/>
<path d="M0 0 C1.29616034 3.88848103 0.52243386 5.23016379 -1 9 C-2.26044859 11.38670493 -3.61019742 13.68366237 -5 16 C-6.65 16 -8.3 16 -10 16 C-9.67 15.34 -9.34 14.68 -9 14 C-8.34 14 -7.68 14 -7 14 C-6.773125 13.360625 -6.54625 12.72125 -6.3125 12.0625 C-4.51434174 7.86679739 -2.26095979 3.96099444 0 0 Z " fill="#B7A4C1" transform="translate(184,151)"/>
<path d="M0 0 C0.53109375 0.37898438 1.0621875 0.75796875 1.609375 1.1484375 C0.78953125 1.41398437 -0.0303125 1.67953125 -0.875 1.953125 C-2.49148437 2.48292969 -2.49148437 2.48292969 -4.140625 3.0234375 C-5.20796875 3.37148437 -6.2753125 3.71953125 -7.375 4.078125 C-9.84611761 4.9551797 -12.0879942 5.90769955 -14.390625 7.1484375 C-14.390625 6.1584375 -14.390625 5.1684375 -14.390625 4.1484375 C-12.48272468 3.25448421 -10.56388694 2.38384416 -8.640625 1.5234375 C-7.57328125 1.03617188 -6.5059375 0.54890625 -5.40625 0.046875 C-2.390625 -0.8515625 -2.390625 -0.8515625 0 0 Z " fill="#838BCF" transform="translate(106.390625,62.8515625)"/>
<path d="M0 0 C-4.55426184 2.66590937 -7.73946963 3.31563182 -13 3 C-13.33 2.34 -13.66 1.68 -14 1 C-12.41913952 0.63495397 -10.83516093 0.28339494 -9.25 -0.0625 C-8.36828125 -0.25972656 -7.4865625 -0.45695313 -6.578125 -0.66015625 C-4.01320972 -0.99825872 -2.42908361 -0.81158635 0 0 Z " fill="#BEA9C1" transform="translate(110,160)"/>
<path d="M0 0 C1.93681161 -0.08107583 3.8745934 -0.13922475 5.8125 -0.1875 C6.89144531 -0.22230469 7.97039062 -0.25710937 9.08203125 -0.29296875 C12 0 12 0 13.88671875 1.51171875 C14.25410156 2.00285156 14.62148437 2.49398437 15 3 C9.9697924 2.47462276 4.98114761 1.89405214 0 1 C0 0.67 0 0.34 0 0 Z " fill="#8288CD" transform="translate(132,61)"/>
<path d="M0 0 C0.66 0 1.32 0 2 0 C1.34 1.98 0.68 3.96 0 6 C-0.99 6 -1.98 6 -3 6 C-1.125 1.125 -1.125 1.125 0 0 Z " fill="#8283CF" transform="translate(69,88)"/>
</svg>
