<?xml version="1.0" encoding="UTF-8"?>
<!DOCTYPE svg PUBLIC "-//W3C//DTD SVG 1.1//EN" "http://www.w3.org/Graphics/SVG/1.1/DTD/svg11.dtd">
<svg xmlns="http://www.w3.org/2000/svg" version="1.1" width="174px" height="164px" style="shape-rendering:geometricPrecision; text-rendering:geometricPrecision; image-rendering:optimizeQuality; fill-rule:evenodd; clip-rule:evenodd" xmlns:xlink="http://www.w3.org/1999/xlink">
<g><path style="opacity:1" fill="#777981" d="M 25.5,29.5 C 25.9118,27.0274 24.9118,25.6941 22.5,25.5C 24.99,21.8621 27.49,18.1955 30,14.5C 31,13.1667 32,13.1667 33,14.5C 32.1301,20.24 29.6301,25.24 25.5,29.5 Z"/></g>
<g><path style="opacity:1" fill="#747882" d="M 83.5,24.5 C 85.1897,25.1031 86.6897,26.1031 88,27.5C 88.3589,24.4557 89.0255,24.1224 90,26.5C 91.4876,24.1798 93.3209,24.0131 95.5,26C 94.8333,26.3333 94.1667,26.6667 93.5,27C 94.8333,27.3333 96.1667,27.6667 97.5,28C 95.102,28.3744 92.7687,28.3744 90.5,28C 90.6191,29.1448 90.9524,30.3115 91.5,31.5C 90.1667,31.1667 88.8333,30.8333 87.5,30.5C 87.1344,29.3054 86.301,28.6387 85,28.5C 82.9011,29.2865 80.7345,29.6199 78.5,29.5C 78.6495,30.552 78.4828,31.552 78,32.5C 77.5774,31.0439 76.7441,30.5439 75.5,31C 76.4506,31.7175 76.6172,32.5509 76,33.5C 74.2942,32.6921 73.4609,31.3588 73.5,29.5C 75.9726,29.9118 77.3059,28.9118 77.5,26.5C 79.2972,25.2702 81.2972,24.6036 83.5,24.5 Z"/></g>
<g><path style="opacity:1" fill="#777a84" d="M 22.5,25.5 C 24.9118,25.6941 25.9118,27.0274 25.5,29.5C 25.6716,30.4916 25.3382,31.1583 24.5,31.5C 23.2789,30.5354 21.9456,30.702 20.5,32C 21.3081,32.3076 21.9747,32.8076 22.5,33.5C 21.6533,34.8448 20.4866,35.8448 19,36.5C 18.0138,35.8288 16.8471,35.8288 15.5,36.5C 18.0231,32.8884 20.3564,29.2217 22.5,25.5 Z"/></g>
<g><path style="opacity:1" fill="#767980" d="M 77.5,26.5 C 77.3059,28.9118 75.9726,29.9118 73.5,29.5C 73.4609,31.3588 74.2942,32.6921 76,33.5C 76.6172,32.5509 76.4506,31.7175 75.5,31C 76.7441,30.5439 77.5774,31.0439 78,32.5C 78.4828,31.552 78.6495,30.552 78.5,29.5C 80.7345,29.6199 82.9011,29.2865 85,28.5C 86.301,28.6387 87.1344,29.3054 87.5,30.5C 80.3344,32.4166 73.6678,35.4166 67.5,39.5C 70.0602,36.8955 69.7269,34.5621 66.5,32.5C 69.678,29.7417 73.3447,27.7417 77.5,26.5 Z"/></g>
<g><path style="opacity:1" fill="#777b81" d="M 106.5,38.5 C 104.262,37.4634 101.929,37.2967 99.5,38C 100.973,38.7096 101.64,39.8762 101.5,41.5C 100.5,41.5 99.5,41.5 98.5,41.5C 98.5916,36.3169 96.2582,32.9835 91.5,31.5C 90.9524,30.3115 90.6191,29.1448 90.5,28C 92.7687,28.3744 95.102,28.3744 97.5,28C 96.1667,27.6667 94.8333,27.3333 93.5,27C 94.1667,26.6667 94.8333,26.3333 95.5,26C 93.3209,24.0131 91.4876,24.1798 90,26.5C 89.0255,24.1224 88.3589,24.4557 88,27.5C 86.6897,26.1031 85.1897,25.1031 83.5,24.5C 88.2922,23.1475 93.2922,23.3141 98.5,25C 102.648,28.642 105.314,33.142 106.5,38.5 Z"/></g>
<g><path style="opacity:0.993" fill="#75787f" d="M 24.5,31.5 C 21.4622,38.2352 18.4622,44.9019 15.5,51.5C 15.5481,48.6872 16.2147,46.0205 17.5,43.5C 16.0977,42.1575 16.4311,41.3242 18.5,41C 17.6921,39.2942 16.3588,38.4609 14.5,38.5C 14.8333,37.8333 15.1667,37.1667 15.5,36.5C 16.8471,35.8288 18.0138,35.8288 19,36.5C 20.4866,35.8448 21.6533,34.8448 22.5,33.5C 21.9747,32.8076 21.3081,32.3076 20.5,32C 21.9456,30.702 23.2789,30.5354 24.5,31.5 Z"/></g>
<g><path style="opacity:1" fill="#777b83" d="M 66.5,32.5 C 69.7269,34.5621 70.0602,36.8955 67.5,39.5C 65.7772,41.2181 63.7772,42.5514 61.5,43.5C 58.676,43.0107 57.3426,41.344 57.5,38.5C 60.0127,35.7454 63.0127,33.7454 66.5,32.5 Z"/></g>
<g><path style="opacity:1" fill="#787b86" d="M 106.5,38.5 C 106.876,44.3396 106.21,50.0063 104.5,55.5C 102.767,54.9924 102.434,54.159 103.5,53C 101.139,50.6141 100.472,47.9475 101.5,45C 101.316,43.6244 100.649,42.7911 99.5,42.5C 98.8333,42.5 98.5,42.1667 98.5,41.5C 99.5,41.5 100.5,41.5 101.5,41.5C 101.64,39.8762 100.973,38.7096 99.5,38C 101.929,37.2967 104.262,37.4634 106.5,38.5 Z"/></g>
<g><path style="opacity:1" fill="#777a83" d="M 14.5,38.5 C 16.3588,38.4609 17.6921,39.2942 18.5,41C 16.4311,41.3242 16.0977,42.1575 17.5,43.5C 16.2147,46.0205 15.5481,48.6872 15.5,51.5C 15.5797,54.7814 14.913,57.7814 13.5,60.5C 12.3998,59.4415 11.0664,58.6082 9.5,58C 10.7506,55.075 11.7506,52.075 12.5,49C 12.2716,48.6012 11.9382,48.4346 11.5,48.5C 12.5,45.1667 13.5,41.8333 14.5,38.5 Z"/></g>
<g><path style="opacity:1" fill="#757982" d="M 99.5,42.5 C 100.649,42.7911 101.316,43.6244 101.5,45C 100.472,47.9475 101.139,50.6141 103.5,53C 102.434,54.159 102.767,54.9924 104.5,55.5C 104.443,56.609 104.11,57.609 103.5,58.5C 101.876,58.3601 100.71,59.0267 100,60.5C 99.3551,59.354 98.5217,58.354 97.5,57.5C 98.6527,56.3132 98.6527,55.3132 97.5,54.5C 98.2952,50.5236 98.9619,46.5236 99.5,42.5 Z"/></g>
<g><path style="opacity:1" fill="#767982" d="M 57.5,38.5 C 57.3426,41.344 58.676,43.0107 61.5,43.5C 60.1667,45.5 58.5,47.1667 56.5,48.5C 56.2172,47.7109 55.7172,47.0442 55,46.5C 54.51,47.7932 54.3433,49.1266 54.5,50.5C 52.712,50.2148 51.0453,50.5481 49.5,51.5C 49.8333,52.1667 50.1667,52.8333 50.5,53.5C 45.6021,59.0292 44.2688,58.0292 46.5,50.5C 49.8547,46.1482 53.5214,42.1482 57.5,38.5 Z"/></g>
<g><path style="opacity:0.827" fill="#73767c" d="M 56.5,48.5 C 53.5244,52.4815 50.5244,56.4815 47.5,60.5C 45.6214,60.6068 45.2881,60.1068 46.5,59C 45.051,57.8978 43.7177,56.7311 42.5,55.5C 43.0798,53.2512 44.4131,51.5846 46.5,50.5C 44.2688,58.0292 45.6021,59.0292 50.5,53.5C 50.1667,52.8333 49.8333,52.1667 49.5,51.5C 51.0453,50.5481 52.712,50.2148 54.5,50.5C 54.3433,49.1266 54.51,47.7932 55,46.5C 55.7172,47.0442 56.2172,47.7109 56.5,48.5 Z"/></g>
<g><path style="opacity:1" fill="#767c84" d="M 42.5,55.5 C 43.7177,56.7311 45.051,57.8978 46.5,59C 45.2881,60.1068 45.6214,60.6068 47.5,60.5C 46.5,62.1667 45.1667,63.5 43.5,64.5C 42.1196,63.2935 40.9529,63.6269 40,65.5C 38.7861,63.5329 38.2861,61.5329 38.5,59.5C 39.5,57.8333 40.8333,56.5 42.5,55.5 Z"/></g>
<g><path style="opacity:1" fill="#7b7e85" d="M 11.5,48.5 C 11.9382,48.4346 12.2716,48.6012 12.5,49C 11.7506,52.075 10.7506,55.075 9.5,58C 11.0664,58.6082 12.3998,59.4415 13.5,60.5C 13.5,62.8333 13.5,65.1667 13.5,67.5C 12.5041,67.4142 11.6708,67.7476 11,68.5C 10.5439,67.2559 11.0439,66.4226 12.5,66C 11.5838,65.6258 10.7504,65.1258 10,64.5C 8.74751,67.0135 8.24751,69.6802 8.5,72.5C 5.91304,65.521 6.57971,58.6877 10.5,52C 9.71289,50.687 10.0462,49.5203 11.5,48.5 Z"/></g>
<g><path style="opacity:1" fill="#777a84" d="M 13.5,67.5 C 14.404,68.209 14.7373,69.209 14.5,70.5C 13.596,71.209 13.2627,72.209 13.5,73.5C 12.448,73.3505 11.448,73.5172 10.5,74C 11.7736,74.9772 11.7736,75.8106 10.5,76.5C 9.32627,75.4863 8.6596,74.153 8.5,72.5C 8.24751,69.6802 8.74751,67.0135 10,64.5C 10.7504,65.1258 11.5838,65.6258 12.5,66C 11.0439,66.4226 10.5439,67.2559 11,68.5C 11.6708,67.7476 12.5041,67.4142 13.5,67.5 Z"/></g>
<g><path style="opacity:0.978" fill="#767a81" d="M 97.5,54.5 C 98.6527,55.3132 98.6527,56.3132 97.5,57.5C 98.5217,58.354 99.3551,59.354 100,60.5C 100.71,59.0267 101.876,58.3601 103.5,58.5C 101.282,65.266 98.2824,71.5993 94.5,77.5C 92.1849,75.2026 89.5182,74.8693 86.5,76.5C 91.0446,69.6174 94.7113,62.2841 97.5,54.5 Z"/></g>
<g><path style="opacity:1" fill="#737880" d="M 38.5,59.5 C 38.2861,61.5329 38.7861,63.5329 40,65.5C 40.9529,63.6269 42.1196,63.2935 43.5,64.5C 41.9059,67.7642 39.5725,70.4309 36.5,72.5C 36.6399,70.8762 35.9733,69.7096 34.5,69C 35.1667,68.6667 35.8333,68.3333 36.5,68C 35.3333,67.5 34.5,66.6667 34,65.5C 33.6582,67.6192 32.8249,67.9526 31.5,66.5C 33.5,63.8333 35.8333,61.5 38.5,59.5 Z"/></g>
<g><path style="opacity:1" fill="#777b83" d="M 36.5,72.5 C 35.5637,73.9744 34.2303,74.9744 32.5,75.5C 30.5182,74.438 28.6848,73.1047 27,71.5C 26.6667,72.5 26.3333,73.5 26,74.5C 25.7216,73.5842 25.2216,72.9175 24.5,72.5C 26.8082,70.5293 29.1415,68.5293 31.5,66.5C 32.8249,67.9526 33.6582,67.6192 34,65.5C 34.5,66.6667 35.3333,67.5 36.5,68C 35.8333,68.3333 35.1667,68.6667 34.5,69C 35.9733,69.7096 36.6399,70.8762 36.5,72.5 Z"/></g>
<g><path style="opacity:1" fill="#787c82" d="M 14.5,70.5 C 15.2674,71.172 15.9341,72.0053 16.5,73C 19.1922,73.4298 21.8589,73.2631 24.5,72.5C 24.6068,74.3786 24.1068,74.7119 23,73.5C 20.373,75.2182 17.5396,76.7182 14.5,78C 15.8228,78.8159 16.4894,79.9826 16.5,81.5C 13.8908,80.5569 11.8908,78.8903 10.5,76.5C 11.7736,75.8106 11.7736,74.9772 10.5,74C 11.448,73.5172 12.448,73.3505 13.5,73.5C 13.2627,72.209 13.596,71.209 14.5,70.5 Z"/></g>
<g><path style="opacity:1" fill="#777b83" d="M 32.5,75.5 C 28.061,79.6494 22.7277,81.6494 16.5,81.5C 16.4894,79.9826 15.8228,78.8159 14.5,78C 17.5396,76.7182 20.373,75.2182 23,73.5C 24.1068,74.7119 24.6068,74.3786 24.5,72.5C 25.2216,72.9175 25.7216,73.5842 26,74.5C 26.3333,73.5 26.6667,72.5 27,71.5C 28.6848,73.1047 30.5182,74.438 32.5,75.5 Z"/></g>
<g><path style="opacity:1" fill="#777a83" d="M 94.5,77.5 C 89.9135,85.0045 85.5801,92.6712 81.5,100.5C 80.1984,99.1931 78.865,99.1931 77.5,100.5C 76.8589,99.0065 75.8589,98.0065 74.5,97.5C 78.7529,90.6628 82.7529,83.6628 86.5,76.5C 89.5182,74.8693 92.1849,75.2026 94.5,77.5 Z"/></g>
<g><path style="opacity:1" fill="#767a81" d="M 74.5,97.5 C 75.8589,98.0065 76.8589,99.0065 77.5,100.5C 78.865,99.1931 80.1984,99.1931 81.5,100.5C 80.8333,102.167 80.1667,103.833 79.5,105.5C 78.4168,105.461 77.4168,105.127 76.5,104.5C 75.7081,106.526 73.7081,107.526 70.5,107.5C 71.2824,103.937 72.6157,100.603 74.5,97.5 Z"/></g>
<g><path style="opacity:1" fill="#757983" d="M 79.5,105.5 C 78.1223,108.906 76.789,112.24 75.5,115.5C 75.4754,112.821 74.142,111.488 71.5,111.5C 71.7148,109.821 71.0481,108.821 69.5,108.5C 69.5,107.833 69.8333,107.5 70.5,107.5C 73.7081,107.526 75.7081,106.526 76.5,104.5C 77.4168,105.127 78.4168,105.461 79.5,105.5 Z"/></g>
<g><path style="opacity:1" fill="#787b83" d="M 127.5,113.5 C 124.592,114.159 124.258,114.993 126.5,116C 125.333,116.5 124.5,117.333 124,118.5C 123.667,117.5 123.333,116.5 123,115.5C 122.329,116.252 121.496,116.586 120.5,116.5C 120.768,114.901 120.434,113.568 119.5,112.5C 121.41,111.316 121.743,109.816 120.5,108C 123.063,107.237 123.063,106.737 120.5,106.5C 118.077,107.421 116.077,108.921 114.5,111C 112.527,111.495 110.527,111.662 108.5,111.5C 112.432,106.872 117.432,105.039 123.5,106C 125.789,107.992 127.123,110.492 127.5,113.5 Z"/></g>
<g><path style="opacity:1" fill="#767c84" d="M 138.5,109.5 C 138.368,112.57 138.701,115.57 139.5,118.5C 136.2,116.978 133.867,117.978 132.5,121.5C 133.025,122.192 133.692,122.692 134.5,123C 133.316,124.145 133.316,125.312 134.5,126.5C 133.375,127.014 132.209,127.347 131,127.5C 130.536,126.906 130.369,126.239 130.5,125.5C 131.327,120.015 131.827,114.348 132,108.5C 134.696,105.793 136.862,106.126 138.5,109.5 Z"/></g>
<g><path style="opacity:1" fill="#767984" d="M 119.5,112.5 C 114.328,115.585 109.328,118.919 104.5,122.5C 103.791,121.596 102.791,121.263 101.5,121.5C 101.491,119.692 101.991,118.025 103,116.5C 103.333,116.833 103.667,117.167 104,117.5C 104.785,115.714 105.951,114.214 107.5,113C 107.272,112.601 106.938,112.435 106.5,112.5C 106.842,111.662 107.508,111.328 108.5,111.5C 110.527,111.662 112.527,111.495 114.5,111C 116.077,108.921 118.077,107.421 120.5,106.5C 123.063,106.737 123.063,107.237 120.5,108C 121.743,109.816 121.41,111.316 119.5,112.5 Z"/></g>
<g><path style="opacity:0.825" fill="#777b81" d="M 74.5,123.5 C 73.3132,125.975 73.6465,128.309 75.5,130.5C 74.5178,131.141 73.5178,131.807 72.5,132.5C 71.3801,131.167 70.0468,130.667 68.5,131C 68.4021,132.285 68.4021,133.451 68.5,134.5C 67.0337,133.653 66.2004,132.32 66,130.5C 65.3523,125.796 65.519,121.129 66.5,116.5C 67.4959,116.586 68.3292,116.252 69,115.5C 69.7887,119.016 69.2887,122.349 67.5,125.5C 68.116,127.721 69.2827,128.388 71,127.5C 71.3333,124.833 71.6667,122.167 72,119.5C 72.2004,121.32 73.0337,122.653 74.5,123.5 Z"/></g>
<g><path style="opacity:1" fill="#787a82" d="M 106.5,112.5 C 106.938,112.435 107.272,112.601 107.5,113C 105.951,114.214 104.785,115.714 104,117.5C 103.667,117.167 103.333,116.833 103,116.5C 101.991,118.025 101.491,119.692 101.5,121.5C 102.791,121.263 103.791,121.596 104.5,122.5C 102.909,124.633 100.909,126.299 98.5,127.5C 96.8908,127.906 95.5575,127.906 94.5,127.5C 95.6405,126.575 95.6405,125.741 94.5,125C 97.2688,124.165 97.9355,122.665 96.5,120.5C 99.5203,117.484 102.854,114.817 106.5,112.5 Z"/></g>
<g><path style="opacity:1" fill="#757982" d="M 69.5,108.5 C 71.0481,108.821 71.7148,109.821 71.5,111.5C 74.142,111.488 75.4754,112.821 75.5,115.5C 74.9084,118.127 74.5751,120.794 74.5,123.5C 73.0337,122.653 72.2004,121.32 72,119.5C 71.6667,122.167 71.3333,124.833 71,127.5C 69.2827,128.388 68.116,127.721 67.5,125.5C 69.2887,122.349 69.7887,119.016 69,115.5C 68.3292,116.252 67.4959,116.586 66.5,116.5C 67.4986,113.838 68.4986,111.172 69.5,108.5 Z"/></g>
<g><path style="opacity:1" fill="#777a85" d="M 139.5,118.5 C 140.209,119.404 141.209,119.737 142.5,119.5C 142.747,121.858 142.081,123.858 140.5,125.5C 139.604,124.494 138.938,124.494 138.5,125.5C 137.167,125.833 135.833,126.167 134.5,126.5C 133.316,125.312 133.316,124.145 134.5,123C 133.692,122.692 133.025,122.192 132.5,121.5C 133.867,117.978 136.2,116.978 139.5,118.5 Z"/></g>
<g><path style="opacity:1" fill="#777a81" d="M 138.5,109.5 C 143.652,116.458 148.319,123.792 152.5,131.5C 149.718,131.227 147.551,129.894 146,127.5C 144.862,127.989 143.695,128.322 142.5,128.5C 141.833,127.5 141.167,126.5 140.5,125.5C 142.081,123.858 142.747,121.858 142.5,119.5C 141.209,119.737 140.209,119.404 139.5,118.5C 138.701,115.57 138.368,112.57 138.5,109.5 Z"/></g>
<g><path style="opacity:0.929" fill="#76797f" d="M 96.5,120.5 C 97.9355,122.665 97.2688,124.165 94.5,125C 95.6405,125.741 95.6405,126.575 94.5,127.5C 95.5575,127.906 96.8908,127.906 98.5,127.5C 96.7772,129.218 94.7772,130.551 92.5,131.5C 91.4908,130.061 91.8241,128.728 93.5,127.5C 93.1543,126.304 92.6543,126.304 92,127.5C 91.7679,126.263 91.2679,125.263 90.5,124.5C 92.2228,122.782 94.2228,121.449 96.5,120.5 Z"/></g>
<g><path style="opacity:0.337" fill="#767b81" d="M 125.5,130.5 C 124.164,127.162 122.831,123.829 121.5,120.5C 122.117,120.389 122.617,120.056 123,119.5C 124.584,123.869 127.417,127.035 131.5,129C 130.141,130.204 129.141,131.704 128.5,133.5C 127.859,132.007 126.859,131.007 125.5,130.5 Z"/></g>
<g><path style="opacity:1" fill="#757982" d="M 127.5,113.5 C 127.684,117.716 128.684,121.716 130.5,125.5C 130.369,126.239 130.536,126.906 131,127.5C 132.209,127.347 133.375,127.014 134.5,126.5C 135.833,126.167 137.167,125.833 138.5,125.5C 138.5,126.833 138.5,128.167 138.5,129.5C 134.757,131.849 131.757,134.849 129.5,138.5C 128.842,139.398 128.176,140.398 127.5,141.5C 126.494,141.062 126.494,140.396 127.5,139.5C 127.043,138.702 126.376,138.369 125.5,138.5C 124.398,136.908 125.065,136.075 127.5,136C 125.321,135.558 124.655,134.558 125.5,133C 122.635,132.817 119.969,132.317 117.5,131.5C 120.385,131.806 123.052,131.473 125.5,130.5C 126.859,131.007 127.859,132.007 128.5,133.5C 129.141,131.704 130.141,130.204 131.5,129C 127.417,127.035 124.584,123.869 123,119.5C 122.617,120.056 122.117,120.389 121.5,120.5C 121.167,119.167 120.833,117.833 120.5,116.5C 121.496,116.586 122.329,116.252 123,115.5C 123.333,116.5 123.667,117.5 124,118.5C 124.5,117.333 125.333,116.5 126.5,116C 124.258,114.993 124.592,114.159 127.5,113.5 Z"/></g>
<g><path style="opacity:1" fill="#757983" d="M 75.5,130.5 C 74.5018,133.187 75.1684,135.52 77.5,137.5C 77.44,138.043 77.1067,138.376 76.5,138.5C 73.2855,138.05 70.6189,136.717 68.5,134.5C 68.4021,133.451 68.4021,132.285 68.5,131C 70.0468,130.667 71.3801,131.167 72.5,132.5C 73.5178,131.807 74.5178,131.141 75.5,130.5 Z"/></g>
<g><path style="opacity:1" fill="#767982" d="M 90.5,124.5 C 91.2679,125.263 91.7679,126.263 92,127.5C 92.6543,126.304 93.1543,126.304 93.5,127.5C 91.8241,128.728 91.4908,130.061 92.5,131.5C 91.3406,133.25 89.674,134.25 87.5,134.5C 85.6883,134.229 84.0217,133.562 82.5,132.5C 83.6527,131.313 83.6527,130.313 82.5,129.5C 84.7937,127.347 87.4604,125.68 90.5,124.5 Z"/></g>
<g><path style="opacity:1" fill="#777a84" d="M 152.5,131.5 C 153.674,132.514 154.34,133.847 154.5,135.5C 150.391,138.196 147.891,136.863 147,131.5C 146.617,132.056 146.117,132.389 145.5,132.5C 144.026,131.564 143.026,130.23 142.5,128.5C 143.695,128.322 144.862,127.989 146,127.5C 147.551,129.894 149.718,131.227 152.5,131.5 Z"/></g>
<g><path style="opacity:1" fill="#777c82" d="M 82.5,129.5 C 83.6527,130.313 83.6527,131.313 82.5,132.5C 84.0217,133.562 85.6883,134.229 87.5,134.5C 84.619,136.68 81.2856,137.68 77.5,137.5C 75.1684,135.52 74.5018,133.187 75.5,130.5C 77.861,130.326 80.1944,129.993 82.5,129.5 Z"/></g>
<g><path style="opacity:1" fill="#777a84" d="M 113.5,132.5 C 115.113,132.944 116.28,133.944 117,135.5C 118.398,134.949 119.732,134.616 121,134.5C 121.336,136.074 122.169,137.408 123.5,138.5C 120.707,138.227 117.707,138.561 114.5,139.5C 109.91,137.422 109.577,135.088 113.5,132.5 Z"/></g>
<g><path style="opacity:1" fill="#787b82" d="M 154.5,135.5 C 156.063,136.945 157.396,138.611 158.5,140.5C 157.504,140.586 156.671,140.252 156,139.5C 154.481,141.381 153.315,143.381 152.5,145.5C 151.833,145.5 151.5,145.167 151.5,144.5C 149.904,140.255 147.904,136.255 145.5,132.5C 146.117,132.389 146.617,132.056 147,131.5C 147.891,136.863 150.391,138.196 154.5,135.5 Z"/></g>
<g><path style="opacity:1" fill="#787b83" d="M 113.5,132.5 C 114.568,131.566 115.901,131.232 117.5,131.5C 119.969,132.317 122.635,132.817 125.5,133C 124.655,134.558 125.321,135.558 127.5,136C 125.065,136.075 124.398,136.908 125.5,138.5C 124.016,140.074 122.349,141.407 120.5,142.5C 118.25,141.87 116.25,140.87 114.5,139.5C 117.707,138.561 120.707,138.227 123.5,138.5C 122.169,137.408 121.336,136.074 121,134.5C 119.732,134.616 118.398,134.949 117,135.5C 116.28,133.944 115.113,132.944 113.5,132.5 Z"/></g>
<g><path style="opacity:0.947" fill="#787b84" d="M 138.5,129.5 C 138.326,131.861 137.993,134.194 137.5,136.5C 135.304,136.565 133.304,137.232 131.5,138.5C 137.285,141.095 143.285,143.095 149.5,144.5C 149.557,145.609 149.89,146.609 150.5,147.5C 147.772,147.394 144.939,147.728 142,148.5C 139.869,146.456 137.369,145.623 134.5,146C 135.416,146.278 136.082,146.778 136.5,147.5C 135.209,147.737 134.209,147.404 133.5,146.5C 132.785,144.245 131.452,142.412 129.5,141C 130.774,140.023 130.774,139.189 129.5,138.5C 131.757,134.849 134.757,131.849 138.5,129.5 Z"/></g>
<g><path style="opacity:1" fill="#787d82" d="M 125.5,138.5 C 126.376,138.369 127.043,138.702 127.5,139.5C 126.494,140.396 126.494,141.062 127.5,141.5C 128.176,140.398 128.842,139.398 129.5,138.5C 130.774,139.189 130.774,140.023 129.5,141C 131.452,142.412 132.785,144.245 133.5,146.5C 132.883,146.611 132.383,146.944 132,147.5C 128.312,145.332 124.478,143.666 120.5,142.5C 122.349,141.407 124.016,140.074 125.5,138.5 Z"/></g>
<g><path style="opacity:0.975" fill="#757a83" d="M 158.5,140.5 C 159.248,142.332 160.248,143.999 161.5,145.5C 160.761,145.369 160.094,145.536 159.5,146C 160.696,146.654 160.696,147.154 159.5,147.5C 158.833,146.833 158.167,146.167 157.5,145.5C 156.167,146.5 154.833,147.5 153.5,148.5C 153.036,147.364 152.702,146.364 152.5,145.5C 153.315,143.381 154.481,141.381 156,139.5C 156.671,140.252 157.504,140.586 158.5,140.5 Z"/></g>
<g><path style="opacity:0.991" fill="#797b86" d="M 149.5,144.5 C 150.167,144.5 150.833,144.5 151.5,144.5C 151.5,145.167 151.833,145.5 152.5,145.5C 152.702,146.364 153.036,147.364 153.5,148.5C 154.833,147.5 156.167,146.5 157.5,145.5C 158.167,146.167 158.833,146.833 159.5,147.5C 160.696,147.154 160.696,146.654 159.5,146C 160.094,145.536 160.761,145.369 161.5,145.5C 167.358,154.674 165.024,157.007 154.5,152.5C 153.516,150.52 152.183,148.853 150.5,147.5C 149.89,146.609 149.557,145.609 149.5,144.5 Z"/></g>
<g><path style="opacity:1" fill="#7a7e84" d="M 150.5,147.5 C 152.183,148.853 153.516,150.52 154.5,152.5C 149.514,151.671 144.681,150.337 140,148.5C 138.687,149.287 137.52,148.954 136.5,147.5C 136.082,146.778 135.416,146.278 134.5,146C 137.369,145.623 139.869,146.456 142,148.5C 144.939,147.728 147.772,147.394 150.5,147.5 Z"/></g>
</svg>
